<?xml version="1.0" encoding="utf-8"?>
<!-- Generator: Adobe Illustrator 18.0.0, SVG Export Plug-In . SVG Version: 6.00 Build 0)  -->
<!DOCTYPE svg PUBLIC "-//W3C//DTD SVG 1.1//EN" "http://www.w3.org/Graphics/SVG/1.1/DTD/svg11.dtd">
<svg version="1.1" id="Layer_1" xmlns="http://www.w3.org/2000/svg" xmlns:xlink="http://www.w3.org/1999/xlink" x="0px" y="0px"
	 width="1400px" height="980px" viewBox="0 0 1400 980" enable-background="new 0 0 1400 980" xml:space="preserve">
<g>
	<defs>
		<rect id="SVGID_1_" width="1400" height="980"/>
	</defs>
	<clipPath id="SVGID_2_">
		<use xlink:href="#SVGID_1_"  overflow="visible"/>
	</clipPath>
	<linearGradient id="SVGID_3_" gradientUnits="userSpaceOnUse" x1="700" y1="-3.142759e-08" x2="700" y2="948.1">
		<stop  offset="0" style="stop-color:#9EDCEB"/>
		<stop  offset="1" style="stop-color:#F9F4D4"/>
	</linearGradient>
	<rect clip-path="url(#SVGID_2_)" fill="url(#SVGID_3_)" width="1400" height="980"/>
	<path opacity="0.32" clip-path="url(#SVGID_2_)" fill="#FFFFFF" d="M-37.9,135.5c6.1-24.7,34.3-36.7,59.5-39.7
		c50.1-6.1,102.4,9.1,141.4,41c39,31.9,64.2,80.2,68.1,130.5c15.1-19.1,47.5-13.5,63.5,4.9c15.9,18.4,19.7,44.1,22.8,68.2
		c8.3-33.1,39.8-58.3,73.8-61.5c34-3.2,68.5,14.6,87.8,42.8c19.3,28.2,23.5,65.5,13.4,98.1c43.9-23.5,106.9-12.7,129.3,31.8
		c6.7-23.9,14.6-49.6,34.6-64.3c27.3-20.1,68.4-10.6,92.4,13.3c24,24,34.1,58.4,39.4,91.9c12.7-29.4,56-47.1,86.2-36.5
		c30.2,10.6,51.7,38.4,63.3,68.2c-15.2-39.3-0.3-88.1,34.2-112.3c34.5-24.2,85.4-21.5,117.2,6.2c10.9-17.2,31.1-33.9,51.4-31.9
		c20.3,2,38.9,16.2,46.2,35.2c-5.3-25.8-0.9-53.9,13.9-75.7c14.8-21.8,40.4-36.5,66.7-36.2c26.4,0.3,52.4,16.5,62.4,40.9
		c12-23.4,33-43.8,59.2-46.3c26.2-2.5,53.3,9.1,69.5,29.8c10.2,13,12.9,25.2,17.1,41.2l-1.5,561.6c-20,2-52-2.1-72-0.1l-929.4,0
		c-3.3,34.1-6.6,68.2-9.9,102.4c-117.7-6.3-235.4-12.6-353.1-18.9c-54.5-2.9-114.3-8.1-153-46.6c-36-35.9-43.5-90.7-48.3-141.3
		c-8.9-94.5-15.3-189.3-19.1-284.2C-116.5,404.6-72.1,274.9-37.9,135.5z"/>
	<g clip-path="url(#SVGID_2_)">
		<rect x="293.8" y="708.8" fill="#B1633B" width="8.9" height="96.6"/>
		<path fill="#729269" d="M270.2,729.6c-1.5,8.2-12,13.2-19.3,9.3c-5.3-7.5-6.5-17.8-3.2-26.3c-10.6-1.6-18.1-13.9-14.6-24
			s17-15.3,26.3-10c-2.3-10.5-1.2-22.7,6.6-30c7.8-7.3,23.3-5.6,26.5,4.6c-2.2-5.9-4.5-11.9-4.5-18.2c0-6.3,2.8-13,8.4-15.8
			c8.1-4.1,18.5,1.8,22.4,10.1c3.9,8.3,3.2,17.9,2.4,27c5.4-4.7,14.1-5.2,20-1.1c5.9,4.1,8.5,12.4,5.9,19.2
			c3.4-4.9,11.7-4.3,15.4,0.4c3.6,4.7,2.8,11.9-0.7,16.7c-3.6,4.8-9.3,7.5-15.2,8.8c4.1-3.5,11.2,0.5,11.6,5.9
			c0.4,5.3-4.1,10.1-9.3,11.5c-5.2,1.5-10.7,0.4-15.8-1.1c2.1,8.5-3.8,18.1-12.4,20c-8.5,1.9-18-4.3-19.6-12.9
			c-0.5,1.5-1,3.1-1.6,4.6c-4.7,2.1-11-0.8-12.4-5.7c-1.2,4.7-2.7,9.8-6.8,12.4C276.3,737.2,269.2,734.3,270.2,729.6z"/>
		<path fill="#729269" d="M346.6,700.1c1.5-0.3,2.9-0.7,4.3-1.3C349.3,698.7,347.8,699.1,346.6,700.1z"/>
		<path fill="#729269" d="M327.6,698.6c-0.1-1.4-0.5-2.8-1.1-4.1C326.7,695.9,327.1,697.2,327.6,698.6z"/>
		<path fill="#6A8760" d="M233.1,688.5c-3.5,10.1,4.1,22.4,14.6,24c-3.3,8.6-2.1,18.8,3.2,26.3c7.3,3.9,17.8-1.2,19.3-9.3
			c-1,4.7,6.1,7.7,10.2,5.2c4.1-2.5,5.6-7.7,6.8-12.4c1.4,5,7.7,7.9,12.4,5.7c0.5-1.5,1-3.1,1.6-4.6c1.6,8.6,11.1,14.8,19.6,12.9
			c8.5-1.9,14.5-11.5,12.4-20c5.1,1.5,10.7,2.6,15.8,1.1c4.6-1.3,8.8-5.3,9.3-9.9c-4.5,3.2-10.3,4.6-15.7,3.5
			c-6.6-1.3-12.3-6.3-14.8-12.5c0.4,4.9-2.4,10.1-7,12.1c-5.9,2.5-13.6-0.9-15.7-7c-2.3,6.2-10.6,9.2-16.3,5.9c-5.7-3.3-7.2-12-3-17
			c-9.4,6.6-23.4,0.3-28.9-9.8c-1.1-1.9-1.9-3.9-2.6-6C245.6,675.2,235.9,680.2,233.1,688.5z"/>
	</g>
	<g clip-path="url(#SVGID_2_)">
		<rect x="372.3" y="653.1" fill="#B1633B" width="13.2" height="140.1"/>
		<path fill="#3B7D73" d="M397.7,684.3c2.2,12.2-7.1,25.2-19.4,27.1c-12.2,1.9-25-7.8-26.5-20.1c-2.8,3.2-7.8,4.2-11.7,2.4
			c-0.7-2.7-1.4-5.4-2.1-8.2c-5.7,0.6-11.5-3.8-12.6-9.4c-1.1-5.7,2.7-11.8,8.2-13.5c-17.2-8.9-24-33.5-13.7-49.9
			c10.3-16.4,35.4-21.1,50.9-9.4c-2.7-8.3-5.5-16.9-4.5-25.5c1-8.7,6.9-17.4,15.5-18.7c9.2-1.4,17.9,6.2,21,15
			c3,8.8,1.8,18.5,0.6,27.7c5-4.7,11.4-9,18.2-7.9c6.8,1.1,11.6,10.7,6.3,15.1c11.4-3.5,25,4.5,27.4,16.2c2.4,11.7-7,24.4-18.8,25.7
			c2.6,1.4,5.2,2.7,7.8,4.1c0.6,5,1.3,10,1.9,15c-6.3,1.9-12.6,3.8-18.9,5.6c-0.1,3.6-0.2,7.3-0.3,10.9
			C418.3,692.8,405.3,691.7,397.7,684.3z"/>
		<path fill="#3B7D73" d="M363.8,654.2c0.3,2.3,1,4.6,1.9,6.7C365.9,658.5,365.1,656.2,363.8,654.2z"/>
		<path fill="#35776C" d="M333.5,662.6c-5.5,1.6-9.3,7.8-8.2,13.5c1.1,5.7,6.9,10,12.6,9.4c0.7,2.7,1.4,5.4,2.1,8.2
			c3.9,1.8,8.9,0.8,11.7-2.4c1.5,12.3,14.3,22,26.5,20.1s21.6-14.9,19.4-27.1c7.6,7.4,20.6,8.5,29.3,2.4c0.1-3.6,0.2-7.3,0.3-10.9
			c6.3-1.9,12.6-3.8,18.9-5.6c-0.6-4.6-1.2-9.1-1.8-13.7c-2.2,1-4.1,2.4-5.7,4.2c-1.4-5.8-7.6-10-13.5-9.3c-0.7,3.1-1.4,6.3-2,9.4
			c0.2-5.4-3.9-10.5-9.2-11.6c-1.2,3.9-2.5,7.8-3.7,11.7c1.7-13.4-2.5-27.4-11.3-37.7c-10.1-2.9-21.7,0.5-28.6,8.4
			c-5.4,6.1-7.7,14.7-6.5,22.7c1.3,2,2,4.3,1.9,6.7c-0.9-2.1-1.5-4.4-1.9-6.7c-2-3-5.3-5.2-9-5.4c-6-0.3-11.8,5-12,11
			c-2.1-7-0.2-14.6-0.5-21.9c-0.3-7.3-4.3-15.8-11.6-16.4c-7.3-0.6-12.5,6.9-15.6,13.6C316.7,646.5,323.2,657.3,333.5,662.6z"/>
	</g>
	<g clip-path="url(#SVGID_2_)">
		<rect x="458.2" y="498.9" fill="#354650" width="6.3" height="272.1"/>
		<polygon fill="#354650" points="523.3,769.2 517.1,770.1 481.9,500.7 488.1,499.8 		"/>
		<polygon fill="#354650" points="403.7,769.2 409.9,770.1 445.1,500.7 438.9,499.8 		"/>
		<rect x="421.9" y="441.5" fill="#C92F2F" width="78.9" height="90.3"/>
		<polygon fill="#354650" points="461.3,395 408.1,448.3 461.3,448.3 514.5,448.3 		"/>
		<rect x="415.6" y="524.9" fill="#354650" width="91.4" height="12.3"/>
		<path fill="#354650" d="M420.2,532.5c5.9,18.7,22.1,32.1,41.2,32.1c19.1,0,35.3-13.4,41.2-32.1H420.2z"/>
		<rect x="430.6" y="585" fill="#354650" width="66.3" height="5.5"/>
		<rect x="421.9" y="631.5" fill="#354650" width="81.4" height="5.5"/>
		<rect x="416.9" y="679.4" fill="#354650" width="93.9" height="5.5"/>
		<rect x="411.9" y="736.3" fill="#354650" width="107.6" height="5.1"/>
		<polygon fill="#354650" points="432.3,588.1 431,591.6 502.9,632.6 504.2,629.1 		"/>
		<polygon fill="#354650" points="494.1,588.1 495.4,591.6 423.5,632.6 422.2,629.1 		"/>
		<polygon fill="#354650" points="427.5,636.5 426.4,640.2 502.7,682.5 503.8,678.8 		"/>
		<polygon fill="#354650" points="500.1,637.9 501.3,641.7 419.2,681.9 418,678.1 		"/>
		<polygon fill="#354650" points="422.8,679.6 421.5,684.1 511,741.1 512.3,736.6 		"/>
		<polygon fill="#354650" points="506.4,680.9 508,685.3 412.6,739.8 410.9,735.4 		"/>
		<g>
			<path fill="#354650" d="M504.8,533.7h-89.5v-19h89.5V533.7z M418.4,530.3h83.2v-12.1h-83.2V530.3z"/>
		</g>
		<g>
			<path fill="#FFFFFF" d="M440.2,476.3h6.7v1.5h-5.1v4.5h4.7v1.5h-4.7v6.2h-1.6V476.3z"/>
			<path fill="#FFFFFF" d="M449.8,485.6l-1.3,4.3h-1.7l4.2-13.6h1.9l4.3,13.6h-1.7l-1.3-4.3H449.8z M453.9,484.3l-1.2-3.9
				c-0.3-0.9-0.5-1.7-0.6-2.5h0c-0.2,0.8-0.4,1.6-0.6,2.5l-1.2,3.9H453.9z"/>
			<path fill="#FFFFFF" d="M459.1,476.5c0.8-0.2,2-0.3,3.1-0.3c1.7,0,2.8,0.3,3.6,1.1c0.6,0.6,1,1.5,1,2.6c0,1.8-1,3-2.3,3.5v0.1
				c1,0.4,1.5,1.3,1.8,2.7c0.4,1.9,0.7,3.2,1,3.7h-1.7c-0.2-0.4-0.5-1.6-0.8-3.3c-0.4-1.9-1-2.6-2.5-2.6h-1.5v5.9h-1.6V476.5z
				 M460.7,482.7h1.6c1.7,0,2.8-1,2.8-2.6c0-1.8-1.2-2.5-2.9-2.5c-0.8,0-1.3,0.1-1.6,0.2V482.7z"/>
			<path fill="#FFFFFF" d="M479.6,483.9c-0.1-1.9-0.2-4.2-0.2-5.9h-0.1c-0.4,1.6-0.9,3.3-1.6,5.2l-2.2,6.6h-1.2l-2-6.5
				c-0.6-1.9-1.1-3.7-1.4-5.3h0c0,1.7-0.1,4-0.2,6l-0.3,5.8h-1.5l0.9-13.6h2.1l2.1,6.6c0.5,1.7,0.9,3.2,1.3,4.6h0.1
				c0.3-1.4,0.8-2.9,1.3-4.6l2.2-6.6h2.1l0.8,13.6h-1.6L479.6,483.9z"/>
		</g>
	</g>
	<path clip-path="url(#SVGID_2_)" fill="#758429" d="M1340.2,831.9c25.9-5.7,48.6-24,59.8-48c3.8-8.1,6.3-17.1,4.8-25.9
		c-1.5-8.8-7.7-17.2-16.3-19.2s-19,4.3-19.3,13.2c-3.3-7.9-12.4-12.8-20.8-11.2s-15.1,9.5-15.2,18.1c-2.8-3.5-7.5-5.4-11.9-4.6
		l-1.7,9.1c-2.7-4.3-10.5-3.7-12.4,1c-0.8-10.5-10.4-19.5-21-19.8c-10.5-0.2-20.5,8.4-21.8,18.8c-1.3-1.1-2.1-2.2-2.7-3.2
		c-3.6-6.6-10.9-10.4-18.2-8.9c-2.9,0.6-5.4,1.5-6.4,2.9c-3.1-9.1-18.8-9.3-22.1-0.2c-0.7-5.9-6-10.8-11.9-11.2
		c-5.9-0.4-11.8,3.7-13.4,9.4c-3-5.2-10.1-7.7-15.7-5.4l-2.5,5.8c-8.6-7-21.2-8.5-31.2-3.8c-10,4.7-16.8,15.5-16.9,26.5
		c49.3,25.8,102.5,44.2,157.2,54.4C1300.2,833.6,1320.7,836.2,1340.2,831.9z"/>
	<g clip-path="url(#SVGID_2_)">
		<g>
			<polygon fill="#C92F2F" points="1101.2,572.7 1013,528.9 924.9,572.7 871.6,625.9 871.6,777 1013,775.8 1154.5,777 1154.5,625.9 
							"/>
			<g>
				<g>
					<rect x="955.9" y="631.3" fill="#C62020" width="115.9" height="123.4"/>
					<path fill="#FFFDFD" d="M1075.1,757.6H952.7V628.5h122.4V757.6z M959.2,751.9h109.3V634.1H959.2V751.9z"/>
				</g>
				<g>
					<polygon fill="#FFFDFD" points="1066,753.7 956.7,635.9 961.7,632.4 1071.1,750.1 					"/>
				</g>
				<g>
					<polygon fill="#FFFDFD" points="961.7,753.7 1071.1,635.9 1066,632.4 956.7,750.1 					"/>
				</g>
			</g>
			<g>
				<polygon fill="#FFFDFD" points="1156.4,635.5 1096.4,575.6 1013,534.2 929.6,575.7 869.4,633.1 858.8,628.3 920.2,569.7 
					1013,523.6 1105.9,569.8 1106.5,570.4 1167.2,630.8 				"/>
			</g>
		</g>
		<g>
			<polygon fill="#C42626" points="471.3,624.9 471.3,758.6 682.3,758.6 682.3,545.2 			"/>
			<polygon fill="#AD1A1A" points="682.3,545.2 603.4,575 603.4,758.6 682.3,758.6 			"/>
			<polygon fill="#FFFDFD" points="451,634.4 451,620.4 667.6,536.5 667.6,559.2 			"/>
		</g>
		<g>
			<rect x="658.5" y="409.8" fill="#C42626" width="49.6" height="101"/>
			<polygon fill="#FC3A39" points="873.3,448.3 785.2,381.9 697.2,448.3 643.9,529.1 643.9,758.6 785.2,756.9 926.5,758.6 
				926.5,529.1 			"/>
			<rect x="642.9" y="573.2" fill="#DB2828" width="284.6" height="9.2"/>
			<rect x="642.9" y="564" fill="#FFFFFF" width="284.6" height="9.2"/>
			<g>
				<rect x="720.9" y="597.1" fill="#DB2828" width="130.4" height="159.7"/>
				<path fill="#FFFDFD" d="M854.9,760.5H717.2V593.4h137.7V760.5z M724.5,753.1h123V600.7h-123V753.1z"/>
			</g>
			<g>
				
					<rect x="688.1" y="673.3" transform="matrix(0.6281 0.7781 -0.7781 0.6281 819.0519 -359.9057)" fill="#FFFDFD" width="195.8" height="7.3"/>
			</g>
			<g>
				
					<rect x="688.1" y="673.3" transform="matrix(-0.6281 0.7781 -0.7781 -0.6281 1806.5255 490.4818)" fill="#FFFDFD" width="195.8" height="7.3"/>
			</g>
			<g>
				<polygon fill="#FFFDFD" points="928.5,543.7 868.5,452.8 785.2,389.9 701.9,452.8 641.7,540.1 631.1,532.8 692.5,443.8 
					785.2,373.8 878,443.9 878.6,444.8 939.2,536.6 				"/>
			</g>
			<g>
				<rect x="720.9" y="475.9" fill="#4C2E2E" width="23.9" height="40.4"/>
				<path fill="#FFFDFD" d="M747,518.6h-28.5v-45H747V518.6z M723.2,514h19.3v-35.8h-19.3V514z"/>
			</g>
			<g>
				<rect x="666.7" y="630.1" fill="#4C2E2E" width="23.9" height="40.4"/>
				<path fill="#FFFDFD" d="M692.9,672.8h-28.5v-45h28.5V672.8z M669,668.2h19.3v-35.8H669V668.2z"/>
			</g>
			<g>
				<rect x="876" y="630.1" fill="#4C2E2E" width="23.9" height="40.4"/>
				<path fill="#FFFDFD" d="M902.2,672.8h-28.5v-45h28.5V672.8z M878.3,668.2h19.3v-35.8h-19.3V668.2z"/>
			</g>
			<g>
				<rect x="830.1" y="475.9" fill="#4C2E2E" width="23.9" height="40.4"/>
				<path fill="#FFFDFD" d="M856.3,518.6h-28.5v-45h28.5V518.6z M832.4,514h19.3v-35.8h-19.3V514z"/>
			</g>
			<g>
				<rect x="763.1" y="455.7" fill="#4C2E2E" width="47.7" height="80.8"/>
				<path fill="#FFFDFD" d="M813.1,538.8h-52.3v-85.4h52.3V538.8z M765.4,534.2h43.1V458h-43.1V534.2z"/>
			</g>
			<rect x="761.3" y="492.4" fill="#FFFDFD" width="51.4" height="7.3"/>
			<rect x="651.1" y="398.8" fill="#FFFDFD" width="64.3" height="16.5"/>
		</g>
	</g>
	<g clip-path="url(#SVGID_2_)">
		<path fill="#FFCA50" d="M1070.9,781.9c-4.4-0.1-8.8-0.2-13.3-0.3c3.8-1.7,7.6-3.3,11.4-5c-2.2-6.9,1.8-15.3,8.6-17.8
			c-2.6-1.5-5.1-3-7.7-4.6c-1.1-3,0.3-6.7,3.1-8.2c-1.9-2.5-5.7-3.1-8.3-1.4c2.4-1.9,4.8-3.7,7.2-5.6c2.1-11,4.2-21.9,6.3-32.9
			c4.9-4.6,9.9-9.3,14.8-13.9c-2.6-18.4,5-38,19.5-49.7c-3.9,1.9-7.8,3.8-11.7,5.7c6.1-8.4,12.1-16.8,18.2-25.2
			c11.3-19.3,25.7-36.8,42.4-51.7c0.1-5.6,5.2-10.7,10.8-10.7c-2.2-0.4-4.3-0.9-6.5-1.3c55-50.4,77.9-29.1,113.4-10.3
			c-3.1-0.8-6.7,1.7-7,4.9c-0.4,3.2,2.6,6.4,5.8,6.3c5.7,7.1,11.4,14.2,17,21.3c-1.8-1.1-3.7-2.3-5.5-3.4c2.4,5.5,7.4,9.7,13.3,11.1
			c-2.7,0-5.4,0.1-8.2,0.1c5.3,7,10.6,14,16,21c-3-0.9-6-1.7-9-2.6c5.9,8.4,11.7,16.8,17.6,25.2c-3.3-0.6-6.5-1.3-9.8-1.9
			c6.3,6.5,10.6,15,11.9,23.9c-2.5-3-5-6.1-7.5-9.1c12.2,17.9,19.3,39.2,20.2,60.9c-2.7-2.6-5.4-5.2-8.1-7.8
			c5.2,20.4,10.4,40.8,15.6,61.2c-2-1.7-4-3.4-6-5.1c-0.4,6-0.9,12-1.3,17.9c0.8,10,1.6,19.9,2.5,29.9
			c-90.5,9.9-182.4,6.3-271.8-10.7C1064.1,787.7,1066.8,783.2,1070.9,781.9z"/>
		<path fill="#F4BB47" d="M1158.5,673.4c-7.9,0.5-14.9,7.1-16,14.9c1.1-6.7,2.2-13.4,3.3-20c-1.4,1.9-2.8,3.7-4.2,5.6
			c0.9-4.7,1.7-9.5,2.6-14.2c-6.7,4.2-12,10.5-15,17.7c2.1-9.5,4.3-18.9,6.4-28.4c-6.9,0.7-13.6,2.8-19.7,6.1
			c9.7-14.2,27-22.8,44.2-21.9c-3.3-1.9-7.8-1.7-10.9,0.5c4.9-5.5,9.9-11,14.8-16.5c-6.6-8.1-19.6-10.1-28.3-4.3
			c2.2,1.9,4.5,3.7,6.7,5.6c-5.6-1.9-12.3-0.1-16.1,4.4c0.7-6.4,4.4-12.4,9.9-15.9c-2.4-0.1-4.8-0.2-7.2-0.2
			c11.2,0.1,22.4-3.5,31.3-10.3c-3.6-0.4-7.2-0.9-10.9-1.3c7.2-0.1,14.4-0.2,21.7-0.3c-2.1-2.7-4.3-5.3-6.4-8
			c2.8,0.6,5.5,1.2,8.3,1.8c-1-2.5-1.9-4.9-2.9-7.4c2.3,0.6,4.7,1.2,7,1.7c-3.5-3.4,0.5-10.7,5.2-9.6c0.1-5.3-5.5-9.8-10.6-8.7
			c2.5-0.6,4.9-1.2,7.4-1.7c-2-0.2-4.1-0.5-6.1-0.7c1-1.5,2-3,2.9-4.5c-1.3,0.6-3.1-0.3-3.3-1.8c-0.2-1.4,1.3-2.9,2.7-2.6
			c-1.7,0.9-3.5,1.7-5.2,2.6c7.9-7.9,20.2-11.1,30.9-7.9c-7.6,0.1-15.2,1.8-22.1,4.9c7.5-1.3,15.4-0.8,22.6,1.6
			c-7.8,1.3-15.5,2.6-23.3,3.9c12.6,2.2,24,10.2,30.3,21.4c-4.8-4.2-10.8-7.1-17.1-8c2.1,7,4.2,14.1,6.3,21.1c-1.5-3-4.7-5.1-8-5.4
			c2.8,2.9,4.7,6.7,5.3,10.7c8.1,1.3,15.6,6.3,19.8,13.4c-4.6-1.7-9.2-3.4-13.8-5.1c2.9,3.1,5.8,6.2,8.7,9.3c-3.2-0.3-6.3-0.6-9.5-1
			c1.9,5.3,3.8,10.7,5.7,16c-3.9-1.6-7.7-3.2-11.6-4.7c0,8.4-0.1,16.9-0.1,25.3c-0.8-5.1-5.6-9.3-10.7-9.4c-0.5,8.7-1,17.5-1.5,26.2
			c0.2-4.3-1.8-8.6-5.1-11.4c-6.9,7.7-11.7,17.3-13.6,27.5C1161.7,680.8,1160.1,677.1,1158.5,673.4z"/>
		<path fill="#FFD580" d="M1228.9,555c3.2-4.8,8-8.5,13.3-10.6c-4.4-0.8-8.7-1.6-13.1-2.5c4.4-0.3,8.8-0.6,13.1-1
			c-0.3-1.4-0.6-2.7-0.8-4.1c6.1,1.5,12.2,3.1,18.2,4.6c0.9,2.7,2.8,5.1,5.3,6.6c-5-5.3-13-7.5-20.1-5.5c6.2,1.4,12,5,16.1,9.9
			C1251.2,546.6,1237.7,547.7,1228.9,555z"/>
		<path fill="#F4BB47" d="M1273.4,628.5c-2-3.8-5-7.1-8.6-9.4c3.6-2.1,8.2-2.5,12.1-1.2c-2.1-4-5.7-7.2-10-8.6
			c6.8,0.4,13.6,0.7,20.3,1.1c-3.3-3.1-6.6-6.1-9.9-9.2c1.9,0.6,3.9,1.2,5.8,1.8c-1.8-2.3-3.5-4.5-5.3-6.8c2.3,0.6,4.7,1.3,7,1.9
			c-3.4-4.7-8-8.6-13.3-11.2c7.3-0.6,14.8,1.1,21.1,4.9c-2.8-3.5-5.7-7-8.5-10.5c5.2,4.1,10.4,8.1,15.6,12.2
			c-3.5-0.8-7-1.5-10.6-2.3c2.1,3.1,4.2,6.1,6.3,9.2c0-1.2-0.9-2.4-2.1-2.6c3.6,3.6,7.3,7.2,10.9,10.8c-4.1-2.4-8.3-4.9-12.4-7.3
			c1.8,2.1,3.6,4.3,5.4,6.4c-2.3-1.1-4.5-2.1-6.8-3.2c4.6,6.4,9.2,12.9,13.7,19.3c-4-4.5-9.2-7.8-14.9-9.7c2.4,4.2,4.8,8.5,7.1,12.7
			c-1.2-2.8-3.7-4.9-6.7-5.5c-0.1,1.2-0.2,2.4-0.4,3.6c-0.8-2.8-2.8-5.2-5.3-6.5c5.6,7.5,8.9,16.8,9.4,26.2
			c-0.8-6.7-6.4-12.4-13.1-13.3c-0.2,4.9-0.4,9.7-0.6,14.6c-7.5-11.3-25.6-13.4-35.5-4.1c0.5-4.8,9.2-3.8,11.1-8.2
			c1.1-2.5-0.8-5.5-3.3-6.6c-2.5-1.1-5.4-0.8-8.1-0.4c4.2-0.4,8.3-0.8,12.5-1.2c-8.5-8.6-22.9-10.6-33.4-4.6c4-4.4,10.1-6.7,16-6
			c-3-1.9-6-3.7-9-5.6c3.4,1.1,7.4,0,9.9-2.6c-1.9-0.6-3.9-1.2-5.8-1.8c2.5-1.7,5.7-2.3,8.6-1.7c-6.6-7.8-17.9-11.4-27.8-8.8
			c10.7-4.2,22.7-5.2,34-2.9c-1.5-5.8-7.4-10.1-13.4-9.8c3.1,0.3,6.2,0.7,9.4,1c-5.9-8.4-14.5-15-24.3-18.4
			c9.9,0,19.6,6.2,23.8,15.2c2.5-8.5,8.6-15.9,16.5-20c-3.6,5-5.5,11.2-5.3,17.4c7.3-2.8,16-2,22.6,2.2c-8.5-2.9-18.4-1.4-25.6,3.9
			c8.4,2.2,15.9,8.1,19.9,15.9c-8.1-6.6-21.8-4.7-27.8,3.9c4.9-0.1,9.7,2.3,12.5,6.3c-1.2-2.9-5.4-4-7.9-2.1
			c2.8,0.8,5.2,2.7,6.5,5.3c-1.5-0.3-3.1-0.5-4.6-0.8C1259.6,615.7,1267.1,621.5,1273.4,628.5z"/>
		<path fill="#FFD580" d="M1218.5,578.3c-2.7-2.8-6.5-4.5-10.3-4.7c2-0.2,4-0.4,6.1-0.6c-4.3-1.3-8.5-2.6-12.8-3.9
			c7.9,1.1,15.7,2.2,23.6,3.3c-3.6-4.4-9.1-7.2-14.8-7.5c9.1,1.7,17.7,6,24.4,12.3c-5.7-1.1-11.3-2.2-17-3.4
			c3.5,1.2,6.9,2.5,10.4,3.7c-1.2,0.5-2.5,0.9-3.7,1.4c5.3,0.8,10.2,3.5,13.7,7.5c-12.5-4.9-27.2-3.8-38.8,3
			c5.9-5.6,14.4-8.3,22.4-7.4c-3.3-2.7-7.4-4.3-11.6-4.5C1213,577.7,1215.7,578,1218.5,578.3z"/>
		<path fill="#FFD580" d="M1158.8,587.1c-2.7-0.7-5.5-1.3-8.2-2c2.9-0.2,5.8-0.5,8.6-0.7c-1.2-1-2.4-2.1-3.5-3.1
			c2.8-0.2,5.6-0.4,8.3-0.6c-1.2,0.9-3.3-0.4-2.9-1.9c0.3-1.5,2.7-1.8,3.4-0.5c-1.6-0.1-2.8-2.2-1.9-3.6c2.9,2.4,5.8,4.7,8.8,7.1
			c-4-0.4-8-0.7-12-1.1c2.2-0.6,4.7,0.4,5.8,2.4c-1.3,0.8-2.6,1.6-4,2.3c3.1,1.1,5.9,3.2,7.8,5.9c-7.8-2.2-16.6-1.1-23.6,3.1
			C1148.3,590,1153.5,587.1,1158.8,587.1z"/>
		<path fill="#F4BB47" d="M1201.3,661c5.4-4,12.4-5.7,19-4.5c-3.9-1.2-7.8-2.4-11.7-3.5c2.9-0.5,5.7-1,8.6-1.5
			c-4.4-0.5-8.7-0.9-13.1-1.4c8.8-4.8,19.6-5.8,29.1-2.9c-5.9-5.1-13-8.9-20.5-11c13.2-0.8,26.5,6.7,32.5,18.5
			c-5.9-4.3-13.6-6-20.7-4.7c4.2,2,8.4,4,12.7,6c-2.3-0.3-4.6-0.7-6.9-1c4,2.9,8.1,5.9,12.1,8.8C1230.6,655.3,1214,654.2,1201.3,661
			z"/>
		<path fill="#F4BB47" d="M1305.4,670.1c8.8,1.7,16.6,8,20.2,16.3c-6.9-6.2-17.2-8.3-26-5.5c4.3,5.1,7.1,11.5,7.7,18.1
			c-5.5-4.4-10.2-9.8-13.8-15.9c2.2,5.4,3.2,11.3,2.9,17.2c-2.3-5-4.7-10.1-7-15.1c-0.6,3.5-1.3,7-1.9,10.5c-1-4.5-2.1-9-3.1-13.5
			c-1,6.7-2,13.4-3.1,20.1c-6-8.2-12.4-16.1-19.2-23.7c-5.9,7.5-11.9,15.1-17.8,22.6c0.2-11.9,0.4-23.8,0.5-35.7
			c1.7,8.3,1.1,17.1-1.6,25.1c3-9,11.5-15.8,20.9-17c5.7,6.7,11.4,13.5,17.1,20.2c-0.3-5.6-0.6-11.1-0.8-16.7
			c2.3,2.2,4.5,4.4,6.8,6.6c0.5-1.5,1-3,1.6-4.5c3.3,3.1,6.6,6.2,9.9,9.4c0.2-4.9-1.4-9.9-4.5-13.7c5.9,1.7,11.8,3.5,17.7,5.2
			c-5-5.4-11.2-9.8-18-12.6c6.3,1,12.7,1.9,19,2.9c-6.2-1.7-12.4-3.4-18.7-5.1c8.2-0.8,16.6,1.1,23.7,5.2
			C1313.5,670.4,1309.5,670.2,1305.4,670.1z"/>
		<path fill="#F4BB47" d="M1170.6,706.9c-0.5-4.5-2.1-8.9-4.6-12.7c5.9,0.5,11.6,2.8,16.1,6.6c-3.5-0.4-7.1-0.8-10.6-1.2
			c6.1,4.7,9.6,12.7,8.7,20.3c-8.1-1.1-15-8.2-15.9-16.3c0.3,4.9,0.6,9.8,0.8,14.7c-3.2-1.8-5.4-5.4-5.4-9.1
			c-1.7,5-3.4,10.1-5.2,15.1c-1.6-4.2-3.2-8.3-4.7-12.5c-0.2,2-0.4,3.9-0.6,5.9c-3-4.3-4.7-9.6-4.7-14.8c1.1,5.1,1,10.5-0.2,15.6
			c-2.3-1.9-3.7-4.7-4-7.6c-1.5,4.8-3.1,9.5-4.6,14.3c-2.9-8.3-5.8-16.5-8.7-24.8c-0.8-2.3-1.8-4.8-4-5.6c-2.4-0.9-5,0.4-7.2,1.7
			c-6.2,3.7-12.5,7.4-18.7,11.1c-1.4,0.9-3.3,1.7-4.7,0.9c-1.9-1.2-1.3-4.1-0.4-6.1c4.6-10.6,9.2-21.2,13.8-31.8
			c1-0.4,2.1-0.7,3.1-1.1c-5.4,10.7-10.8,21.4-16.1,32.1c9.2-5.3,18.5-10.6,27.7-16c0.2,3,0.5,6.1,0.7,9.1c1.1-1.7,2.3-3.4,3.4-5.1
			c7.5,7.4,12.6,17.1,14.5,27.4c0-7.6,0-15.3,0-22.9c5.4,4,9.1,10.1,10.3,16.7c0.1-3.7,0.1-7.4,0.2-11.1c3,2.3,6.1,4.7,9.1,7
			c0.4-3.4-0.1-6.9-1.5-10C1162.7,698.7,1167.4,702.3,1170.6,706.9z"/>
		<path fill="#E2A333" d="M1195,619.3c-5.6-2.2-11.8-2.9-17.7-1.9c4,0.6,7.7,2.7,10.3,5.8c-1.9-0.2-3.9-0.5-5.8-0.7
			c2.5,3.5,4.9,6.9,7.4,10.4c-7.7-3.5-16.4-4.8-24.8-3.8c-0.7,2.4-1.4,4.8-2.2,7.1c0-4-0.1-8-0.1-12.1c-1.3,1.9-2.6,3.7-3.9,5.6
			c1-3.1,2.9-5.9,5.5-7.9c-1.2-0.1-2.4-0.2-3.5-0.3c3.3-0.5,6.6-0.9,9.9-1.4c-1,3.1-3,5.9-5.6,7.9c3.6-3.7,9.8-4.7,14.4-2.3
			c-2-3.8-4.1-7.6-6.1-11.3c2,0.9,4,1.9,6,2.8c-1-2.1-2-4.2-3-6.3c4.2,2.7,9.1,4.3,14.1,4.9c-1.6-2-3.2-4-4.8-6
			C1189.1,612.2,1192.5,615.4,1195,619.3z"/>
		<path fill="#F4BB47" d="M1203.4,723.6c10.5-0.9,21.3,2.6,29.2,9.6c-2.8-4.6-5.6-9.2-8.4-13.8c2.7,2.8,5.4,5.6,8.2,8.4
			c-1-6.2-1.9-12.5-2.9-18.7c6.8,6.2,12.4,13.8,16.4,22.2c-0.1-6.4-0.2-12.9-0.3-19.3c2,3.8,4.1,7.6,6.1,11.4
			c0.4-2.8,0.8-5.7,1.2-8.5c2.1,3.8,7,5.8,11.2,4.7s7.3-5.5,7.2-9.8c1.9,13,3.8,26,5.7,39c3.6-10.9,11-20.4,20.7-26.6
			c-2.2,5.3-4.3,10.7-6.5,16c1.8-1.8,3.6-3.7,5.3-5.5c-2,4.2-4,8.4-6,12.7c2.2-2.2,4.4-4.4,6.7-6.5c-0.7,3.1-1.4,6.2-2.2,9.3
			c7.7-2.2,14.7-6.3,20.4-12c0.8,4.4,1.7,8.8,2.5,13.3c1.2-7.5,2.4-15,3.5-22.6c0.6,5.7,1.2,11.3,1.8,17c0.7-1.7,1.4-3.4,2.1-5.1
			c7.2,12.6,9.9,27.8,7.6,42.1c-2.9-7.2-7.7-13.7-13.8-18.5c-0.4,2.5-0.9,5-1.3,7.5c-0.9-3.6-6.3-5-8.8-2.3
			c-5.7-3.5-13.5-1.1-18.2,3.6c-4.7,4.8-6.9,11.3-9.1,17.7c0.5-14.4,0.9-28.8,1.4-43.2c-3.1,3.7-6.2,7.5-9.4,11.2
			c-4.2-11-8.4-22.1-12.6-33.1c-1,2.8-2,5.6-3,8.4c-1.3-2.1-2.5-4.2-3.8-6.2c-0.3,2.4-0.6,4.8-0.9,7.2c-0.9-2.5-1.9-5-2.8-7.5
			c-0.6,1.2-1.2,2.5-1.7,3.7c-1,12.7,10.1,25.1,22.8,25.5c-5.5-0.8-11-1.6-16.5-2.3c3.5,2.1,7,4.1,10.4,6.2
			c1.7,5.7,6.3,10.4,11.9,12.4c-8.8-5.2-17.6-10.4-26.3-15.5c1,6.2,2,12.3,2.9,18.5c-1-5.3-2-10.6-3.1-16c-0.3,2.8-0.6,5.6-0.8,8.3
			c-3-7.4-7.2-14.3-12.3-20.4c-4.4,11.6-8.9,23.1-13.3,34.7c1.7-11.9,5.3-23.8,3.2-35.7C1225.6,733.3,1215.3,721.7,1203.4,723.6z"/>
		<path fill="#E2A333" d="M1292.8,711.9c-0.1,1.2-0.2,2.4-0.4,3.6c-2.2-1.8-4.4-3.7-6.7-5.5c-0.2,1.6-0.4,3.2-0.6,4.8
			c0-3.3-1.4-6.6-3.8-8.9c-1.9,8.6-0.6,17.8,3.5,25.6c-0.1-6.8-0.3-13.6-0.4-20.4c1.5,4.7,4.4,8.9,8.4,11.7c0.3-2,0.5-4.1,0.8-6.1
			c4.2,4.6,8.4,9.2,12.6,13.8c-2.5-6-5-12-7.5-18c7.9,2.4,15.3,6.4,21.6,11.8c-3.6-5.7-8.3-10.6-13.8-14.3c5.9-3.7,11.7-7.3,17.6-11
			c-5.1-0.8-10.2-1.6-15.4-2.5c0.1,2.5,0.3,4.9,0.4,7.4c1.8-0.9,3.6-1.8,5.4-2.6c-5.2,2.8-8.7,8.6-8.7,14.5
			c-3.1-3.3-7.2-5.6-11.6-6.5c-0.3,2.5,0.9,5.1,3,6.5C1295.7,714.6,1294.2,713.2,1292.8,711.9z"/>
		<path fill="#E2A333" d="M1180.1,566c-0.2,5.5,0.9,11,3.2,15.9c-3.6-1.4-6.3-5.1-6.3-9c-0.2,2.4-0.3,4.8-0.5,7.1c0-4,0-8,0-12
			c-0.2,3.2-2.5,6.1-5.6,6.9c0.2-2.4,0.5-4.9,0.7-7.3c-2,4.2-4,8.4-6.1,12.6c3-2.1,5.9-4.2,8.9-6.3c0.1,2.2,0.3,4.4,0.4,6.7
			c6.1,1.9,11.4,6.2,14.5,11.8c-0.7-7-2.9-13.8-6.4-19.8c5.3,2.6,10.7,5.2,16,7.8c-1.9-4.3-3.9-8.6-5.8-12.9c2.7,1.5,5.3,2.9,8,4.4
			c-4-4.4-8-8.8-12-13.2c0.4,3.7,0.7,7.3,1.1,11c-1.3-2.1-2.6-4.3-3.9-6.4c-0.2,4,1.1,8.1,3.7,11.2
			C1185.9,572.8,1182.3,569.8,1180.1,566z"/>
		<path fill="#E2A333" d="M1275.7,606.8c1.3,2.6,2.7,5.1,4,7.7c-0.1-2.4-1.2-4.7-3-6.3c-1.2,3-1.1,6.5,0.4,9.5
			c-2.2-1.8-4.5-3.6-6.7-5.4c-0.8,3.2-1.5,6.4-2.3,9.5c-1-1.7-2.1-3.4-3.1-5.1c-0.2,2-0.4,4-0.6,6c-1.8-2.2-3.6-4.4-5.4-6.5
			c-0.1,1.9-0.2,3.8-0.3,5.8c-0.9-2.9-1.8-5.8-2.8-8.7c-0.2,2-0.4,4-0.6,6c-0.7-4.5-1.5-8.9-2.2-13.4c-2,1.4-3.9,2.8-5.9,4.1
			c2.2-4.1,4.4-8.3,6.6-12.4c-1.3,3.6-3.7,6.8-6.9,8.9c1.5-3.1,3.1-6.1,4.6-9.2c-2.4,0.3-4.5,2.1-5,4.4c1.4-2.7,2.8-5.4,4.1-8.1
			c-1.8,0.6-3.6,1.2-5.4,1.8c0.7-2.3,1.4-4.5,2.1-6.8c-4.7,3.5-9.4,7.1-14.1,10.6c3.7-0.9,7.3-1.7,11-2.6c-1.1,2.2-2.1,4.5-3.2,6.7
			c1.7-1,3.4-2,5.1-3c-2.1,5.4-4.3,10.8-6.4,16.2c3.1-2.1,6.2-4.3,9.3-6.4c2.5,6.7,5,13.3,7.6,20c0.7-3.5,1.4-7,2.1-10.5
			c1.1,2.9,2.1,5.8,3.2,8.7c0.2-3.3,4.2-5.3,7.5-4.6c3.3,0.7,5.8,3.2,8.2,5.5c-0.1-4.4-2.9-8.7-6.9-10.7c4.4,3.1,9.7,4.9,15.1,5.1
			c-1.6-5.9-2.3-12.1-1.8-18.2c2.2,2.6,4.4,5.2,6.5,7.7C1285.7,611,1280.7,608.9,1275.7,606.8z"/>
		<path fill="#FFD580" d="M1228.8,687.8c-4-5.6-6.6-12.2-7.4-19.1c-0.5,5.2-1.1,10.3-1.6,15.5c-0.7-3.5-2.6-6.7-5.3-8.9
			c0,4,0.1,8,0.1,12c-2-3.8-4-7.6-5.9-11.4c-0.5,4.4-1,8.8-1.5,13.1c-2-4.2-4-8.4-5.9-12.6c-0.3,3.9-0.6,7.8-0.9,11.8
			c-2.4-8.1-4.7-16.1-7.1-24.2c-2.9,6.8-5.7,13.6-8.6,20.3c2.8-5,4.2-10.7,3.9-16.4c-4.1,7.6-7,15.9-8.7,24.3
			c4.5-4.8,8.9-9.5,13.4-14.3c-0.1,5.7,2.5,11.5,6.8,15.2c-0.1-2.5-0.3-4.9-0.4-7.4c3,6.5,7.8,12.1,13.8,15.9
			c-1.1-5.3-2.1-10.7-3.2-16c5.5,2.5,10.2,6.9,13.1,12.2c-1-6.5-2-13-2.9-19.4C1223.2,681.4,1226,684.6,1228.8,687.8z"/>
		<path fill="#FFD580" d="M1265,659.2c4.8,4.3,7.6,10.6,7.8,17.1c-13.2-6.9-23.3-19.3-27.5-33.6c7.3,8.9,14.6,17.8,21.8,26.8
			c-2.2-5.9-4.4-11.7-6.6-17.6c3.5,2.6,7.1,5.3,10.6,7.9c-0.1-2.4-0.2-4.9-0.2-7.3c3.8,0.8,7.4,2.9,10.1,5.7
			c0.3-2.4,0.5-4.8,0.8-7.2c2.1,3,4.3,6,6.4,9c0.4-8.1,2-16.1,4.9-23.6c4.2,6.8,8.3,13.6,12.5,20.5c-2-10.2-4-20.3-6-30.5
			c3.5,13.4,7,26.8,10.5,40.2c-7-3.1-13.1-8.3-17.2-14.7c2.3,3.3,3.5,7.3,3.5,11.3c-1.7-3-3.3-6-5-9c-0.9,6.5-3.1,12.8-6.4,18.4
			c-0.4-3.3-0.8-6.5-1.3-9.8c-0.3,2.4-0.7,4.8-1,7.1c-0.6-4.9-4.8-9.2-9.7-9.8c0.6,2.5,1.2,5.1,1.7,7.6
			C1272.7,663.8,1269.1,660.7,1265,659.2z"/>
	</g>
	<path clip-path="url(#SVGID_2_)" fill="#70691B" d="M265.1,751.1c11.4-6.8,28.4-0.6,32.7,12c14.8-18.3,48.3-8.6,56.7,13.4
		c8.4,22-3.5,47.5-22,62s-42.1,20.3-65.1,25.4c-78.6,17.5-161,30.5-239,10.7c-21.1-5.4-42.4-13.7-56.8-30
		C-52.8,817-50.6,775.7-47,739c1.6-15.9,3.3-32.3,11.1-46.2c7.8-13.9,23.4-24.8,39.1-22.1c15.7,2.7,26.9,23.4,17.1,36
		c6.1-8.9,18-13.4,28.5-10.7c0.1,7,0.1,14,0.2,21c0.2-14.3,18.6-24.8,31-17.6c12.4,7.1,12.6,28.3,0.4,35.7c5.2-6,16.7-3.7,19.2,3.8
		c0-6.9,6.3-13.3,13.2-13.4c6.9-0.1,13.4,6,13.6,13c0.1-9.7,9.6-18.3,19.2-17.5c9.7,0.8,17.6,10.7,16.2,20.3
		c-0.2-10.3-0.5-20.5-0.7-30.8c14.1-2.9,27.6,14.4,21.5,27.4c4.5-3,8.9-5.9,13.4-8.9c2.9,5.2,5.8,10.3,8.7,15.5
		c0.9-3.9,1.8-7.7,2.8-11.6c8.5-3.4,19,5.5,17.1,14.4c2.4-4.8,4.9-9.7,7.3-14.5c9.1,0,18.2,0,27.4,0
		C261.1,738.8,263.1,745,265.1,751.1z"/>
	<path clip-path="url(#SVGID_2_)" fill="#758429" d="M-5.4,747.8l4-6.6c5.3-2.2,11.8-1.2,16.3,2.4c4.5,3.6,6.7,9.8,5.7,15.5
		c-1.3-3.5,4.9-5.6,7.4-2.9c2.5,2.7,2.1,7,1.5,10.6c0.6-8.7,12.9-12.8,20.2-8c7.3,4.8,9.4,14.9,7.6,23.5c0.7-5.5,5-10.4,10.3-11.9
		c5.4-1.4,11.5,0.7,14.9,5.1c-1-6.5,4.2-13.3,10.7-13.9c6.5-0.7,13,4.8,13.4,11.4c0.1-4.6,4.1-9.1,8.5-10.5s9.6,0.3,12.4,4
		c-0.3-6.3,6.6-11.7,12.6-10c6,1.7,9,10,5.4,15.1c2.4-1.5,5.1-2.6,8-3.3c3.9-0.9,7.8,0.7,10.5,3.7c0.1,0.1,0.2,0.2,0.3,0.3
		c4.5-9.5,19.7-11.1,26.1-2.8c6.7-9.5,22.1-12.2,30.7-4.4c-2.6-6.2,1.6-14.3,8.1-15.8c6.6-1.5,13.8,4.1,14.1,10.8
		c3.4-7.7,16.4-7.9,20-0.3c1.6-4.3,6.1-7.3,10.6-7.2c4.6,0.1,8.9,3.4,10.3,7.7c6.6-7.2,19.8-6.4,25.4,1.5c5.1-5.7,15.5-5.7,19,1.2
		c5.3-5.4,13.2-8,20.7-6.8l5.1,8.9c5.3-8.5,16.1-13.1,25.9-11.2c9.8,1.9,18,10.3,19.8,20.2c1.9,11.2-4.1,22.6-12.8,29.9
		c-8.7,7.3-19.7,11.2-30.6,14.6c-95.9,29.7-198.5,27.2-298.9,24.4c-26.2-0.7-53.2-1.6-77.1-12.5c-17.3-7.9-33.7-27.1-25.3-44.1
		c7.1-14.6,30.2-22.4,26.7-38.2C-12.5,748.8-10.9,747.2-5.4,747.8z"/>
	<path clip-path="url(#SVGID_2_)" fill="#FFFCF0" d="M1168.6,755.8c-0.8-0.4-15.7-8.3-51.5-17.5l0-1.7l-6.5,0.1
		c-10.8-2.7-23.3-5.4-37.6-8.1c-113.6-21.3-252.8-22.5-349.7-19.8c-97.4,2.7-239.6,11.6-363.4,38.2c-74.3,16-106.2,30.6-107.6,31.2
		l2.9,6.4c0.2-0.1,12.4-5.7,38.7-13.6l0.3,21.4l7-0.1l-0.3-23.1l-1,0c16-4.7,36.5-10,61.8-15.4c11.7-2.5,23.6-4.9,35.6-7.1l0.5,37.2
		l7-0.1l-0.6-38.4c25-4.5,50.5-8.3,75.9-11.6l0.6,41.9l7-0.1l-0.6-42.7c22.4-2.8,44.8-5.2,66.7-7.2l0.7,51.3l7-0.1l-0.8-51.8
		c27.8-2.5,54.9-4.4,80.6-5.8l0.7,45l7-0.1l-0.7-45.2c26.9-1.5,52.1-2.4,74.9-3.1c1.9-0.1,3.8-0.1,5.7-0.2l0.9,58.8l7-0.1l-0.9-58.9
		c24.1-0.6,50.6-0.9,78.3-0.7l0.6,44.6l7-0.1l-0.6-44.4c23.1,0.2,47.1,0.8,71.5,1.9l0.7,46.1l7-0.1l-0.7-45.7
		c23,1.1,46.2,2.6,69.2,4.7l0.5,37.7l7-0.1l-0.5-37c20.3,1.9,40.4,4.3,60,7.2l0.6,38.2l7-0.1l-0.5-37c9.4,1.4,18.7,3,27.7,4.7
		c15.1,2.8,28.1,5.7,39.3,8.5l0.4,29.8l7-0.1l-0.4-27.9c33.7,8.9,47.9,16.3,48.1,16.4L1168.6,755.8z"/>
	<path clip-path="url(#SVGID_2_)" fill="#DBC66A" d="M-12,807.7c0,0,599.7-83,1012.6-64.6c412.9,18.5,535.1,110.7,535.1,110.7v184.5
		L-41.9,987.7L-12,807.7z"/>
	<g clip-path="url(#SVGID_2_)">
		<path fill="#E5CF73" d="M349.3,767.6c-44.1,4-85.8,8.1-124.2,12.1c60.9,42.4,116.4,147.5,149.9,221.3l200.1,6.4
			C502.7,853.1,393.7,788.6,349.3,767.6z"/>
		<path fill="#E5CF73" d="M631.2,747.3c-43.7,2.3-87,5-129.4,8c72.8,42.4,139.4,179.9,171.7,255.4l200.1,6.4
			C799.5,837,674.9,767,631.2,747.3z"/>
		<path fill="#E5CF73" d="M1148.4,753.8c-44.5-4.6-93.6-8.3-147.7-10.7c-6.1-0.3-12.2-0.5-18.4-0.7c82.8,53.6,156.6,226.3,179.5,284
			l199.1,6.4C1304.9,873.9,1209.6,792.1,1148.4,753.8z"/>
	</g>
	<path clip-path="url(#SVGID_2_)" fill="#FCCA8D" d="M696.2,743.2l124.6-2.3c0,0,101.5,50.7,83,149.9l-140.7-9.2
		C763.1,881.6,850.7,847,696.2,743.2z"/>
	<path clip-path="url(#SVGID_2_)" fill="#70691B" d="M1103.2,844.4c1.7-10.2,9.1-19.3,18.8-23.1c9.7-3.8,21.3-2.1,29.5,4.2
		c-5.3-10.7-10.4-24.5-2.6-33.6c7.6-8.9,23.2-5.8,30.8,3.1c7.6,8.9,9.5,21.3,11,32.9c-0.6-5.4,2.6-11,7.6-13.2
		c5-2.2,11.3-0.8,14.8,3.3c-0.8-8.3,5.9-16.5,14.1-17.5s16.6,5.5,17.8,13.8c1-10.6,2.1-21.8,8.4-30.5c6.3-8.6,19.5-13.2,27.9-6.6
		c9.7,7.7,6.5,22.9,2.3,34.5c1-0.3,1.9-1.1,2.9-2.3c5-6,14.8-3.8,16.4,3.9c0,0.1,0,0.1,0,0.2c2.3-8.2,11.1-13.9,19.5-12.7
		c8.4,1.2,15.2,9.3,15.1,17.7c-4.7-14.1-6.9-29.6-1.9-43.6c5-14,18.6-25.6,33.4-24.4c14.8,1.2,27,18.4,20.4,31.7
		c21.5-8.5,46.9,10.9,49.8,33.8c2.9,22.9-11.7,45.4-31,58c-19.4,12.7-42.7,17.4-65.6,21.1c-77.6,12.6-157,16-235.1,6.2
		c-15.5-1.9-32.8-5.5-41.4-18.6s2.2-36.2,17.1-31.5c-6-5.4-4.6-16.7,2.5-20.5C1093,827.3,1102.1,836.5,1103.2,844.4z"/>
	<path clip-path="url(#SVGID_2_)" fill="#A8AD53" d="M101.1,1015.3c0,0,1038-228.4,1360.9-177.6v198.4L101.1,1015.3z"/>
	<path clip-path="url(#SVGID_2_)" fill="#B7B75C" d="M972,860.4c90.2,12.2,330.6,54.7,487.1,175.7l2.9,0v-82.8
		c-110.8-59.4-252.5-96.8-318.4-112.2C1088.7,846.2,1031,852.8,972,860.4z"/>
	<path clip-path="url(#SVGID_2_)" fill="#A8AD53" d="M1232.3,834.3c-28.5,1.8-58.2,4.1-88.7,6.9c65.9,15.4,207.7,52.8,318.4,112.2
		v-32.6C1394.9,876.7,1302,849.6,1232.3,834.3z"/>
	<path clip-path="url(#SVGID_2_)" fill="#B7B75C" d="M1232.3,834.3c69.7,15.4,162.6,42.4,229.7,86.4v-82.9
		C1404.7,828.7,1324.8,828.5,1232.3,834.3z"/>
	<path clip-path="url(#SVGID_2_)" fill="#FCCA8D" d="M1039.9,849.3c0,0,64.6,18.5,145.3,43.8c80.7,25.4,209.9,41.5,269.9,136.1
		c60,94.6-502.9,36.9-502.9,36.9l-66.9-193.8L1039.9,849.3z"/>
	<path clip-path="url(#SVGID_2_)" fill="#70691B" d="M845.5,922.2c-45.6-0.2-91.2-0.4-136.8-0.5c-27.6-0.1-56.9-0.7-80.2-15.7
		c-23.3-15.1-36-41.8-47.4-67.1c-7.8-2.7-8.9-15.6-1.6-19.6c-9.9-3.9-12.9-19-5.2-26.4c7.7-7.4,22.6-4,26.2,6.1
		c-12.7-15.7-0.7-43.9,19.5-45.1c20.1-1.2,35.3,26.2,23.2,42.3l9.5-8c7.2-1.1,14.4,6.3,13,13.4c1.5-7.3,9.9-12.4,17.1-10.3
		c7.2,2.1,11.6,10.8,9,17.8c13.8-11,36.6-8.1,47.2,6.1c-10.6-16,3.9-41.4,23-40.4c19.1,1,30.9,27.8,18.7,42.6
		c3.4-5.1,10.9-7,16.3-4.2c5.5,2.8,8.2,10,6.1,15.7c0.2-0.2,0.4-0.4,0.7-0.6c7.5-6.3,19.1-1.5,20.6,8.2l1.4,9.2
		c0-0.1,0.1-0.2,0.1-0.3c5.9-13.9,25.5-14.5,32.5-1.1l1.9,3.6c2.9-9.6,7.6-19.1,15.8-24.9c8.2-5.8,20.4-6.7,27.8,0
		c7.4,6.7,6.2,21.4-3.2,24.9l14.1-0.4c9.4-0.2,17.9,6.2,19.8,15.5c3.3,16.1-5.4,35.7-19.8,45.6C894.9,921.9,869.4,922.3,845.5,922.2
		z"/>
	<g clip-path="url(#SVGID_2_)">
		<g>
			<path fill="#BCA74B" d="M-21.2,793.9c0,0,1005.7-9.2,1319.4,207.6h-1324L-21.2,793.9z"/>
			<path fill="#CCBE68" d="M-21.2,793.9l-4.6,207.6H109c3.1-42.2,15.4-139.6,63.1-204.8C55.1,793.2-21.2,793.9-21.2,793.9z"/>
			<path fill="#CCBE68" d="M593.9,1001.5c5.8-47.2,20.4-119.3,57-172.3c-75.9-8.5-151.3-15-222.7-19.9
				c-25.9,43.7-67.6,122.4-78.5,192.2H593.9z"/>
			<path fill="#CCBE68" d="M1298.2,1001.5c-90.5-62.6-238.7-106.3-403.7-136.9c-20.6,37.7-44.6,88-57,136.9H1298.2z"/>
		</g>
		<path fill="#FCCA8D" d="M562.4,821.6c0,0,83,2.3,193.8,20.8c0,0-73.8,126.9-71.5,216.8H504.7C504.7,1059.2,484,950.8,562.4,821.6z
			"/>
	</g>
	<path clip-path="url(#SVGID_2_)" fill="#70691B" d="M-11.5,957.7c-6.8-17.1-13.6-34.7-13.5-53c0.2-18.4,9.1-37.9,26-45.1
		c16.7-7.1,36.8-0.1,49.5,12.8c12.7,12.9,19.1,30.7,23.3,48.3c-3.2-14.9,12.2-28.9,27.5-28.7c15.2,0.2,28,16.6,24.5,31.4
		c-4.6-13.3,6.2-28.7,20-31.2c13.8-2.5,28.1,6.4,34.3,19c6.2,12.6,5.1,27.9-0.4,40.8c7.6-10.9,27-9.8,33.3,2
		c-6.2-16.8,2.1-37.6,18.1-45.5c16-8,37.6-2,47.2,13c9.7,15.1,6.1,37.1-7.8,48.4c7.1-5.5,18.8-0.5,21.7,8.1
		c2.9,8.5-1.2,18.2-7.9,24.3c-6.7,6-15.5,9.2-24.1,11.9c-73.7,23.1-154.2,25.5-228.3,3.9c-12.2-3.6-24.7-8.1-33.5-17.2
		c-8.8-9.1-12.8-24.2-5.8-34.8C-9.7,963.1-10.1,961.2-11.5,957.7z"/>
	<ellipse opacity="0.4" clip-path="url(#SVGID_2_)" fill="#70691B" cx="957.9" cy="771.8" rx="87" ry="15"/>
	<g clip-path="url(#SVGID_2_)">
		<path fill="#FFFFFF" d="M1023.7,680.5c1.5-0.5,3.2-1.1,4.8-0.9s3.3,1.2,3.7,2.8c0.6,2.4-2.3,4.7-4.7,4
			C1025,685.7,1023.6,683,1023.7,680.5z"/>
		<path fill="#D4D0D6" d="M949,739.2c0,0-2,8.2-8.7,12.2c-4.5,2.6-6.8,7.8-5.8,12.9l1.2,5.9h-7.4l-6.9-28L949,739.2z"/>
		<path fill="#D4D0D6" d="M1011.7,729.1c0,0-3.6,20-10,19.9c-6.9-0.1-4.6,9.8-3.9,15l0.7,6l-7.4-0.6l-9.1-33.3L1011.7,729.1z"/>
		<path fill="#FFFFFF" d="M908.5,733c-0.3-3.3-1.3-6.5-3-9.3c-4.9-8.3-8.2-28.3,3.8-33.7c15.2-6.9,57.1,1,70.3-2
			c13.3-3,26.6-13.8,26.6-13.8s8.4-9.3,16.7,1c8.4,10.3,6.4,15.2,11.3,18.2c4.9,3,7.9,4.9,6.4,8.9c-1.5,3.9-3.4,5.9-9.3,5.9
			c-5.9,0-13.8-2-13.8-2s-1,21.1-5.9,26.6c-4.9,5.4-25.6,8.4-25.6,8.4s-3.4,6.4-2,10.3c1.5,3.9,3.9,18.2,3.9,18.2H979
			c0,0-5.9-18.2-5.4-26.6h-40.8c0,0-3.4,5.9-8.9,7.9c-5.4,2-1.5,18.7-1.5,18.7h-10.3c0,0-5.4-14.8-3.9-23.1
			C909,742.1,908.8,736.9,908.5,733z"/>
		<path fill="#FFFFFF" d="M909.2,690c0,0-12.8,8.4-17.7,27.5l-3.9,16.7h3.4c0,0,3-28,19.7-39.3L909.2,690z"/>
		<rect x="911.2" y="767.7" fill="#D4D0D6" width="11.3" height="7.4"/>
		<rect x="979" y="768.7" fill="#D4D0D6" width="11.3" height="7.4"/>
		<rect x="927.9" y="767.7" fill="#B9B5BC" width="8.9" height="7.4"/>
		<rect x="990.9" y="768.5" fill="#B9B5BC" width="8.9" height="7.4"/>
		<path fill="#D4D0D6" d="M932.7,744.5c7.7-9.3,11.5-21.8,10.1-33.8c2.9,5.8,3.4,12.7,1.6,18.9C942.5,735.7,938.2,741.2,932.7,744.5
			z"/>
		<path fill="#D4D0D6" d="M993.8,738.1c-2.1,2.3-4.8,4.8-7.8,4.2c8.5-5.7,15.2-13.9,19.1-23.3C1004.3,726.5,998.9,732.6,993.8,738.1
			z"/>
		<path fill="#A64D49" d="M887.6,734.3h3.4c0,0,1.5,6.9-2.5,8.9C884.6,745.1,887.6,734.3,887.6,734.3z"/>
		<path fill="#FFFFFF" d="M1007.2,671.3c-4.3-1.5-5.6-6.8-6.2-11.3c-0.4,3.7-0.5,7.6,1.1,11c1.6,3.4,5.4,5.9,9,5
			c1.3-0.5,1-2.5-0.1-3.3C1009.9,671.8,1008.5,671.8,1007.2,671.3z"/>
		<path fill="#FFFFFF" d="M1024.2,671.8c4.3-1.5,5.6-6.8,6.2-11.3c0.4,3.7,0.5,7.6-1.1,11c-1.6,3.4-5.4,5.9-9,5
			c-1.3-0.5-1-2.5,0.1-3.3C1021.4,672.3,1022.9,672.2,1024.2,671.8z"/>
		<ellipse fill="#563D3D" cx="1016.7" cy="682.9" rx="1.3" ry="2.7"/>
		<ellipse fill="#563D3D" cx="1026" cy="682.6" rx="1.2" ry="2.5"/>
		<path fill="#563D3D" d="M1032.7,691.5c0,0-9.8,3-6.4,16.7c0,0,7.9,3.4,12.3-2c4.4-5.4,1.5-8.9,1.5-8.9L1032.7,691.5z"/>
		<path fill="#563D3D" d="M950.7,705c-1.5-2.8-5.4-3.2-8.6-2.9c-3.2,0.3-6.9,0.8-9.3-1.3c-2.4-2.1-2.5-6.1-0.8-8.7
			c1.8-2.7,4.9-4.1,8.1-4.6c3.2-0.4,6.8-0.2,10,0.1c10.1,1,20.5,1.7,30.5,0.5c1.4,3.7,0.2,7.7-2.8,10.4c-3,2.7-8.4,2.3-10.5-1.1
			c-0.4,2.8-0.9,5.6-2.1,8.2c-1.2,2.5-3.4,4.8-6.1,5.5c-2.7,0.7-6-0.4-7.2-2.9C951.3,707,951.2,705.9,950.7,705z"/>
		<path fill="#563D3D" d="M959.9,743.6c-3-1.7-6.4-5.5-8-8.5c-1.6-3-1.5-7.1,0.9-9.5c2.4-2.4,7.2-2.1,8.6,1c0.2-4.1,4.6-7.4,8.6-6.5
			c4,1,6.4,5.9,4.7,9.7l0,0c3.6,0.4,5.5,4.7,3.1,7.5c-1.3,1.6-2.9,3-4.7,4.1c-0.8,0.6-1.7,1.1-2.5,1.7L959.9,743.6z"/>
		<path fill="#563D3D" d="M1010.3,716.6c-0.3,1.2,1.1,2.2,2.3,2c1.2-0.2,2-1.2,2.6-2.3c1.7-2.9,2.4-6.5,1.7-9.9
			c-3.1-2.6-6.8-4.4-10.8-5.3c-2-0.4-4.1-0.5-5.8,0.4c-1.7,1-2.8,3.4-1.7,5.1c-2.2-1.4-5.5,0.1-6.1,2.7c-0.6,2.6,1.5,5.3,4.1,5.7
			c2.6,0.4,5.3-1.1,6.4-3.5c-0.8,1.9-0.1,4.2,1.6,5.4C1006.4,718.2,1008.8,718,1010.3,716.6z"/>
		<path fill="#563D3D" d="M988.6,688c1.1-1,2.2-2,3.7-2.3c0.7-0.1,1.5-0.1,2.1,0.2c1.7,0.8,1.6,2.7,0.9,3.9
			c-0.5,0.9-1.3,1.6-2.1,2.3c1.4-0.2,2.6,1.5,2.3,2.9c-0.3,1.4-1.7,2.4-3.1,2.6c-0.3,0.1-0.5,0.1-0.8,0.1c-1.7,0.1-3-1.6-2.5-3.3
			l0,0c-1.4,1.2-4.1-0.1-4-1.9c0.1-1.9,2.8-2.9,4.1-1.6C988.2,690.4,987.9,688.9,988.6,688z"/>
	</g>
	<path clip-path="url(#SVGID_2_)" fill="#ECF4E5" d="M313.1,115c-10.4-9.6-6.2-29,6.2-35.7c12.4-6.7,28.9-1.9,38.2,8.8
		c-7.3-10-3.5-25.7,6.9-32.5c10.4-6.8,25.2-4.7,34.3,3.6c9.2,8.3,12.9,21.7,10.8,33.9c6.1-5.5,15.4-7.3,23.1-4.4
		c7.7,2.9,13.5,10.3,14.5,18.5c6.4-7.4,16.8-11.2,26.4-9.7c9.7,1.6,18.3,8.4,22,17.5c9.9,0.7,19.8,1.3,29.7,2l13.9,2.7
		c-17.5,1.8-35.1,2.2-52.7,1.1c-2.2-8.3-10-14.8-18.6-15.5c-8.6-0.6-17.3,4.7-20.6,12.6c-1-9.9-8.2-19-17.6-22.2
		c-9.4-3.3-20.6-0.6-27.6,6.5c4.6-11.5,2.1-25.8-7-34.2c-9-8.4-24.3-9.6-34-1.9s-11.6,23.8-3.2,32.9c-3.8-12.9-20.9-19.7-32.4-13
		C313.8,92.7,303.8,105.3,313.1,115z"/>
	<path clip-path="url(#SVGID_2_)" fill="#F9FCF7" d="M181.1,393.9c10.5-17.9,35.6-25.4,54.2-16.1c18.5,9.3,27.6,33.9,19.6,53
		c19.4-7.7,44.1,4.7,49.5,24.8c-14.8-16.7-40.4-22.9-61.2-14.9c6.3-18.4,2.1-41.5-14-52.3c-16.1-10.9-43.1-2.2-45.7,17
		c2.2-9.9-3.4-20.9-12.7-25s-21.2-0.6-26.9,7.7c1-22.7-0.1-47.3-14.2-65c-14.2-17.7-46-22.1-58.2-3c-11.9,18.7,2,42.7,15.4,60.4
		c-7.1-11.8-24.2-16.3-36.2-9.6c-12.1,6.7-17.1,23.6-10.8,35.9c-11.1-9.1-13.3-27.3-4.5-38.8s26.8-14.2,38.6-5.9
		c-20.2-13.8-17.5-48.7,2.8-62.3c20.4-13.7,50.4-6.4,65.7,12.7c15.4,19.1,17.3,46.7,9.2,69.8c2.8-8.1,12.9-12.8,20.9-9.7
		S184.6,386.1,181.1,393.9z"/>
	<path opacity="0.32" clip-path="url(#SVGID_2_)" fill="#FFFFFF" d="M777.2,246.8c-12.4-18.3-9.8-45.2,5.9-60.7
		c15.7-15.5,42.7-17.8,60.8-5.1c18.1,12.7,25.2,38.8,16,58.9c6.2-11.5,19.6-18.7,32.7-17.6c0.7,4,1.3,8,2,12
		c7.6-21.1,34.5-32.8,55.1-24c20.6,8.8,30.8,36.3,20.9,56.4c7-5.1,15.5-8,24.1-8.2c2.4,6.7,4.8,13.4,7.1,20.2
		c6.7-9.7,21.6-12.3,31.2-5.4c9.5,6.9,11.8,21.9,4.7,31.3c1.4-10.5-8.1-21-18.7-20.6c-10.5,0.4-19.3,11.6-17.2,21.9
		c2.3-12.5-4.4-25.9-15.5-32.2c-11-6.3-25.5-5.5-36.3,1.2c12.1-9.8,14.7-29.5,5.6-42.1c-9.1-12.7-28.6-16.4-41.8-7.9
		c-13.2,8.4-17.9,27.6-10.3,41.2c-7-10.6-14.1-21.2-21.1-31.8c-14.8-0.2-27.5,15.9-23.8,30.3c-11.3-11.1-13.1-28.3-16.7-43.7
		c-3.6-15.4-12.2-32.5-27.8-35.1c-15.8-2.6-30.1,12.2-33,27.9c-2.9,15.7,2.3,31.6,7.5,46.7c-25.9-13.9-61.8-4.2-77.2,20.8
		C721.2,255.8,751,240.3,777.2,246.8z"/>
	<path opacity="0.32" clip-path="url(#SVGID_2_)" fill="#FFFFFF" d="M1244.2,106.9c13.8-37.2-6.5-37.6-24.4-40.9
		c-17.9-3.3-36.4,8.7-43.7,25.4c-7.3,16.7-4.5,36.5,4.1,52.5c-25.9-24.6-73.4-20-94.2,9.1c-1.9-17.9,14.7-33.4,32.3-36.9
		c17.6-3.4,35.6,2.1,52.7,7.9c-16.4-24.4-5.3-62.6,21.7-74.4c27-11.7,62.5,6.1,69.2,34.8c-1.2-11,10.2-21.5,21.1-19.3
		c10.9,2.2,17.4,16.2,12,25.9c15.7-7.5,35.7-4.9,49.1,6.3c13.4,11.2,19.4,30.4,14.8,47.2c10.7-12.8,30.2-17.4,45.4-10.7
		c15.3,6.7,25.1,24.1,23,40.6c6.3-15.6-11.2-32.8-28-31.7c-16.8,1.1-30.3,14.4-39,28.8c-0.8-23.1-5.2-48-22.2-63.7
		c-17-15.6-49.8-14.4-58.7,7c0.8-11.3,1.5-22.6,2.3-33.9C1265.7,81.6,1250.4,92.1,1244.2,106.9z"/>
	<path clip-path="url(#SVGID_2_)" fill="#F9FCF7" d="M971.6,379.8c10.5-5.3,24.2-3.4,32.8,4.7c-13.7-31.7,9.7-73.3,43.9-78
		c34.2-4.7,68,29,63.4,63.1c2-12,10.7-23.3,22.6-26c11.9-2.7,25.8,5.2,27.6,17.2c-0.1-14.4,17.1-24.7,31-21
		c14,3.7,23.4,17.4,26.4,31.5c3,14.1,0.7,28.8-1.5,43c1.1-15.3,23.9-20.3,36-10.8c12.1,9.4,15.6,26,17.8,41.2
		c0.1-14.8-12.1-28.7-26.8-30.4c-14.7-1.7-29.8,8.9-33.1,23.3c3.1-14.8,6.2-30,3.6-44.9c-2.5-14.9-12-29.7-26.5-33.9
		s-32.8,6.3-32.7,21.4c5.5-12.1-9.4-25.9-22.5-23.5c-13.1,2.4-22.1,14.8-26.7,27.4c7.8-20.5-0.5-46-18.9-58
		c-18.4-12-45.1-9.2-60.6,6.4c-15.6,15.5-18.4,42.2-6.5,60.6C1006.3,383.9,988.9,379.2,971.6,379.8z"/>
	<path clip-path="url(#SVGID_2_)" fill="#ECF4E5" d="M1147,220c-12.1-18.4-32.2-31.3-53.9-34.7s-44.8,3-61.8,17
		c7.3-20.6,28.2-35.5,50.1-35.7s43.1,14.4,50.7,34.8c-3.1-20.4,2.9-42.1,16.1-58c9.1-11,23.4-19.5,37.3-16.2
		c15.2,3.7,23.9,19.8,27.6,35.1c3.7,15.2,4.4,31.6,12.4,45.1c-3.8-9.3,4.6-21.1,14.6-20.6c10,0.6,17.1,13.3,12.2,22.1
		c3.7-12.8,23.7-13.2,32.6-3.3c8.9,9.9,9.7,24.5,10,37.8c0.9-12.2-7.8-24.4-19.7-27.5c-11.8-3-25.4,3.4-30.5,14.6
		c3.9-4.9,4.1-12.5,0.4-17.6s-10.9-7.3-16.9-5.2c-3,6-6,12.1-9,18.1c1.7-20.5-2.9-41.4-13-59.2c-6.3-11.1-16-21.7-28.7-23.1
		c-16.1-1.8-30.4,12.7-34.3,28.4C1139.4,187.7,1143.2,204.2,1147,220z"/>
</g>
</svg>
